<svg width="16" height="16" viewBox="0 0 16 16" fill="none" xmlns="http://www.w3.org/2000/svg">
<path d="M1 3C1 1.89543 1.89543 1 3 1H13C14.1046 1 15 1.89543 15 3V13C15 14.1046 14.1046 15 13 15H3C1.89543 15 1 14.1046 1 13V3Z" fill="#00D26A"/>
<path d="M6.621 11.5C6.42941 11.5 6.23783 11.4283 6.09149 11.2846L3.21928 8.4639C2.92691 8.17677 2.92691 7.711 3.21928 7.42387C3.51165 7.13675 3.98593 7.13675 4.2783 7.42387L6.621 9.72455L11.7217 4.71534C12.0141 4.42822 12.4884 4.42822 12.7807 4.71534C13.0731 5.00247 13.0731 5.46824 12.7807 5.75537L7.15051 11.2846C7.00448 11.4283 6.81258 11.5 6.621 11.5Z" fill="#F4F4F4"/>
</svg>
