<svg width="16" height="16" viewBox="0 0 16 16" fill="none" xmlns="http://www.w3.org/2000/svg">
<rect x="0.5" y="2.5" width="15" height="11" rx="1.5" fill="#B4ACBC"/>
<rect x="1" y="3.5" width="14" height="9" rx="1" fill="#CDC4D6"/>
<path d="M15 11.6998L8.5145 7.80852C8.19781 7.61851 7.80219 7.61851 7.4855 7.80852L1 11.6998V11.9998C1 12.5521 1.44772 12.9998 2 12.9998L14 12.9998C14.5523 12.9998 15 12.5521 15 11.9998V11.6998Z" fill="#E1D8EC"/>
<path d="M1 4.8831V4H15V4.8831L8.77174 8.62005C8.29672 8.90506 7.70328 8.90506 7.22826 8.62005L1 4.8831Z" fill="#998EA4"/>
<path d="M1 4.3V4C1 3.44772 1.44772 3 2 3H14C14.5523 3 15 3.44772 15 4V4.3L8.5145 8.1913C8.19781 8.38131 7.80219 8.38131 7.4855 8.1913L1 4.3Z" fill="#F3EEF8"/>
</svg>
