<svg width="28" height="28" viewBox="0 0 28 28" fill="none" xmlns="http://www.w3.org/2000/svg">
<g clip-path="url(#clip0_2232_1012)">
<path d="M6.79084 5.72842C11.3397 2.50259 17.8368 2.76625 22.0427 6.35259C26.3208 10.0031 26.9053 15.9636 23.3867 20.2336C20.0722 24.2551 14.0942 25.5804 9.11717 23.5061L8.84534 23.3883L3.74234 24.4744L3.69567 24.4814L3.65484 24.4896H3.63384L3.60817 24.4954H3.56384L3.52534 24.5001L3.50084 24.4989L3.47401 24.5001L3.43551 24.4966H3.39467L3.36901 24.4919L3.34334 24.4896L3.30251 24.4814L3.26284 24.4756L3.24417 24.4709L3.21617 24.4651L3.15901 24.4464L3.13101 24.4406L3.11817 24.4348L3.09251 24.4266L3.04001 24.4033L3.00501 24.3893L2.99217 24.3823L2.97584 24.3753L2.93967 24.3543L2.88717 24.3263L2.86851 24.3134L2.82534 24.2831L2.77867 24.2516L2.77634 24.2469L2.76117 24.2364L2.71101 24.1898L2.68184 24.1664L2.67484 24.1583L2.60951 24.0859L2.59434 24.0696L2.58151 24.0533L2.53601 23.9879L2.51967 23.9658L2.51384 23.9541L2.46484 23.8689L2.45667 23.8549L2.45201 23.8456L2.44384 23.8316L2.42751 23.7873L2.40417 23.7383L2.39951 23.7196L2.39484 23.7079L2.37501 23.6368L2.36684 23.6158L2.36451 23.5983L2.35867 23.5761L2.35284 23.5376L2.34351 23.4886L2.34117 23.4524L2.33767 23.4408V23.4221L2.33301 23.3591L2.33417 23.3171L2.33534 23.2903L2.33767 23.2284L2.34234 23.1993V23.1771L2.35167 23.1363L2.35751 23.0966L2.36334 23.0733L2.36801 23.0499L2.38901 22.9799L2.39251 22.9648L3.73417 18.9398L3.70851 18.8966C1.13017 14.5251 2.29801 9.10709 6.52367 5.92442L6.79084 5.72842Z" fill="#1E1E1F"/>
</g>
<defs>
<clipPath id="clip0_2232_1012">
<rect width="28" height="28" fill="white"/>
</clipPath>
</defs>
</svg>
