<svg width="28" height="28" viewBox="0 0 28 28" fill="none" xmlns="http://www.w3.org/2000/svg">
<g clip-path="url(#clip0_2232_10385)">
<path d="M6.79182 5.72793C11.3407 2.5021 17.8378 2.76576 22.0436 6.3521C26.3218 10.0026 26.9063 15.9631 23.3876 20.2331C20.0732 24.2546 14.0951 25.5799 9.11815 23.5056L8.84632 23.3878L3.74332 24.4739L3.69665 24.4809L3.65582 24.4891H3.63482L3.60915 24.4949H3.56482L3.52632 24.4996L3.50182 24.4984L3.47498 24.4996L3.43648 24.4961H3.39565L3.36998 24.4914L3.34432 24.4891L3.30348 24.4809L3.26382 24.4751L3.24515 24.4704L3.21715 24.4646L3.15998 24.4459L3.13198 24.4401L3.11915 24.4343L3.09348 24.4261L3.04098 24.4028L3.00598 24.3888L2.99315 24.3818L2.97682 24.3748L2.94065 24.3538L2.88815 24.3258L2.86948 24.3129L2.82632 24.2826L2.77965 24.2511L2.77732 24.2464L2.76215 24.2359L2.71198 24.1893L2.68282 24.1659L2.67582 24.1578L2.61048 24.0854L2.59532 24.0691L2.58248 24.0528L2.53698 23.9874L2.52065 23.9653L2.51482 23.9536L2.46582 23.8684L2.45765 23.8544L2.45298 23.8451L2.44482 23.8311L2.42848 23.7868L2.40515 23.7378L2.40048 23.7191L2.39582 23.7074L2.37598 23.6363L2.36782 23.6153L2.36548 23.5978L2.35965 23.5756L2.35382 23.5371L2.34448 23.4881L2.34215 23.4519L2.33865 23.4403V23.4216L2.33398 23.3586L2.33515 23.3166L2.33632 23.2898L2.33865 23.2279L2.34332 23.1988V23.1766L2.35265 23.1358L2.35848 23.0961L2.36432 23.0728L2.36898 23.0494L2.38998 22.9794L2.39348 22.9643L3.73515 18.9393L3.70948 18.8961C1.13115 14.5246 2.29898 9.1066 6.52465 5.92393L6.79182 5.72793Z" fill="#BFC0C4"/>
</g>
<defs>
<clipPath id="clip0_2232_10385">
<rect width="28" height="28" fill="white"/>
</clipPath>
</defs>
</svg>
