<svg width="16" height="16" viewBox="0 0 16 16" fill="none" xmlns="http://www.w3.org/2000/svg">
<path d="M6.25 13.75C6.47422 14.471 7.16875 15 8 15C8.83125 15 9.52578 14.471 9.75 13.75H6.25Z" fill="#FF822D"/>
<path d="M8 3.275C7.655 3.275 7.375 2.995 7.375 2.65V1.625C7.375 1.28 7.655 1 8 1C8.345 1 8.625 1.28 8.625 1.625V2.65C8.625 2.995 8.345 3.275 8 3.275Z" fill="#FFB02E"/>
<path d="M13.8 11.4214C13.32 11.0351 13.03 10.4582 12.91 9.84615L12.045 5.39632C11.66 3.42475 9.97 2.00502 8 2C6.03 2.00502 4.34 3.42475 3.955 5.39632L3.09 9.84615C2.97 10.4582 2.68 11.0351 2.2 11.4214C1.775 11.7676 1.5 12.2943 1.5 12.8963V13.5134C1.5 13.7843 1.715 14 1.975 14H8H14.025C14.29 14 14.5 13.7843 14.5 13.5134V12.8963C14.5 12.2943 14.225 11.7676 13.8 11.4214Z" fill="#F9C23C"/>
</svg>
