<svg width="17" height="16" viewBox="0 0 17 16" fill="none" xmlns="http://www.w3.org/2000/svg">
<path d="M12.8089 9H15.0139C15.2889 9 15.5139 9.225 15.5139 9.5V10C15.5139 13 12.9489 15 10.5189 15C10.2389 15 10.0139 14.775 10.0139 14.5V13.555C10.0139 13.25 9.7639 13 9.4589 13H7.3939C4.6989 13 2.5139 10.815 2.5139 8.12V6.40064L2.12353 5.734L2.52787 4.99786C2.6532 3.8739 3.60649 3 4.7639 3C5.26159 3 5.72155 3.16159 6.09416 3.43518L6.2889 3.03996C6.9939 1.60996 8.5289 0.819957 10.0789 1.03496C10.3339 1.06996 10.5189 1.28996 10.5189 1.54496L10.5183 2.47491L11.0039 1.995C11.6489 1.355 12.5189 1 13.4239 1H14.3939C14.7339 1 15.0139 1.275 15.0139 1.62V3.51C15.0139 5.575 14.2089 7.535 12.8089 9Z" fill="#9B9B9B"/>
<path d="M12.4474 8.65456L11.6395 9.5H15.0139V10C15.0139 12.6883 12.7097 14.5 10.5189 14.5C10.5175 14.5 10.5163 14.4998 10.5163 14.4998L10.5155 14.4995L10.5139 14.4985V13.555C10.5139 12.9739 10.0401 12.5 9.45892 12.5H7.39392C4.97506 12.5 3.01392 10.5389 3.01392 8.12V5.75464L3.02734 5.03173C3.13445 4.16847 3.87146 3.5 4.76392 3.5C5.41838 3.5 5.98964 3.85904 6.29032 4.39327L6.29857 4.40793L6.78061 5.14397L6.78405 5.14909C7.13773 5.67483 7.89528 5.77423 8.36123 5.30979L8.36247 5.30855L11.3554 2.35063L11.3561 2.34993C11.9067 1.80355 12.6499 1.5 13.4239 1.5H14.3939C14.4604 1.5 14.5139 1.55376 14.5139 1.62V3.51C14.5139 5.44444 13.7598 7.28123 12.4474 8.65456Z" fill="white"/>
<path d="M1.76892 4C1.62892 4 1.51892 4.11 1.51892 4.25L1.51392 7.61C1.51392 8.165 1.80892 8.685 2.28892 8.965L3.0429 9.4011L2.69392 9.63496C2.26892 9.91496 2.01392 10.395 2.01392 10.91V11.785C2.01392 11.955 2.20392 12.055 2.34392 11.96L2.82892 11.635C3.25392 11.355 3.51392 10.875 3.51392 10.36V9.67354L4.56414 10.281C4.54764 10.3513 4.53891 10.4246 4.53891 10.5C4.53891 11.0274 4.96648 11.455 5.49391 11.455C5.58014 11.455 5.66369 11.4436 5.74315 11.4221L5.74393 11.425L6.42393 11.24C6.55893 11.2 6.63893 11.065 6.60393 10.93L6.41893 10.25L6.41607 10.2508C6.30646 9.84419 5.93513 9.54498 5.49391 9.54498C5.22185 9.54498 4.97635 9.65875 4.80241 9.84131L2.54392 8.535C2.52491 8.52389 2.50631 8.51221 2.48814 8.5H3.09892C3.61392 8.5 4.09392 8.245 4.37892 7.815L4.70392 7.33C4.79892 7.19 4.69392 7 4.52392 7H3.64892C3.13392 7 2.65392 7.255 2.37392 7.685L2.11736 8.06786C2.05054 7.92675 2.01392 7.77061 2.01392 7.61L2.01892 4.25C2.01892 4.11 1.90392 4 1.76892 4Z" fill="#44911B"/>
<path d="M4.51392 6C4.79006 6 5.01392 5.77614 5.01392 5.5C5.01392 5.22386 4.79006 5 4.51392 5C4.23777 5 4.01392 5.22386 4.01392 5.5C4.01392 5.77614 4.23777 6 4.51392 6Z" fill="#212121"/>
<path d="M2.52819 4.99414L1.60383 5.55483C1.48883 5.62483 1.48883 5.78983 1.60383 5.85983L2.51382 6.40388V5.24985C2.51382 5.16339 2.5187 5.07806 2.52819 4.99414Z" fill="#F9C23C"/>
</svg>
