<svg width="28" height="28" viewBox="0 0 28 28" fill="none" xmlns="http://www.w3.org/2000/svg">
<path d="M13.999 26.2481C22.1666 26.2481 26.2481 20.764 26.2481 13.999C26.2481 7.23407 22.1666 1.75 13.999 1.75C5.83138 1.75 1.75 7.23407 1.75 13.999C1.75 20.764 5.83138 26.2481 13.999 26.2481Z" fill="#FFB02E"/>
<path d="M9.11675 16.8214C11.1493 16.8214 12.797 15.1737 12.797 13.1412C12.797 11.1087 11.1493 9.46094 9.11675 9.46094C7.08422 9.46094 5.43652 11.1087 5.43652 13.1412C5.43652 15.1737 7.08422 16.8214 9.11675 16.8214Z" fill="white"/>
<path d="M18.872 16.8885C20.923 16.8885 22.5857 15.2258 22.5857 13.1747C22.5857 11.1236 20.923 9.46094 18.872 9.46094C16.8209 9.46094 15.1582 11.1236 15.1582 13.1747C15.1582 15.2258 16.8209 16.8885 18.872 16.8885Z" fill="white"/>
<path d="M8.76523 5.57324C8.59841 6.18914 8.30563 6.75954 7.83275 7.17486C7.3668 7.5841 6.68961 7.87511 5.6875 7.87511C5.44588 7.87511 5.25 8.07098 5.25 8.31261C5.25 8.55424 5.44588 8.75011 5.6875 8.75011C6.87289 8.75011 7.76388 8.39991 8.41016 7.83229C9.04951 7.27077 9.41299 6.52867 9.60978 5.80198C9.67295 5.56876 9.53514 5.32849 9.30186 5.26532C9.06868 5.20216 8.8284 5.34001 8.76523 5.57324Z" fill="#402A32"/>
<path d="M19.2349 5.57324C19.4017 6.18914 19.6945 6.75954 20.1674 7.17486C20.6333 7.5841 21.3105 7.87511 22.3126 7.87511C22.5542 7.87511 22.7501 8.07098 22.7501 8.31261C22.7501 8.55424 22.5542 8.75011 22.3126 8.75011C21.1272 8.75011 20.2362 8.39991 19.59 7.83229C18.9506 7.27077 18.5871 6.52867 18.3903 5.80198C18.3272 5.56876 18.465 5.32849 18.6982 5.26532C18.9314 5.20216 19.1717 5.34001 19.2349 5.57324Z" fill="#402A32"/>
<path d="M14 20.125C12.875 20.125 12.2381 20.4993 11.9937 20.7437C11.652 21.0854 11.098 21.0854 10.7563 20.7437C10.4146 20.402 10.4146 19.848 10.7563 19.5063C11.3869 18.8757 12.5 18.375 14 18.375C15.4342 18.375 16.6087 18.8712 17.2437 19.5063C17.5854 19.848 17.5854 20.402 17.2437 20.7437C16.902 21.0854 16.348 21.0854 16.0063 20.7437C15.7663 20.5038 15.0741 20.125 14 20.125Z" fill="#402A32"/>
<path d="M12.25 13.125C12.25 14.5748 11.0748 15.75 9.625 15.75C8.17526 15.75 7 14.5748 7 13.125C7 11.6752 8.17526 10.5 9.625 10.5C11.0748 10.5 12.25 11.6752 12.25 13.125Z" fill="#402A32"/>
<path d="M21 13.125C21 14.5748 19.8248 15.75 18.375 15.75C16.9252 15.75 15.75 14.5748 15.75 13.125C15.75 11.6752 16.9252 10.5 18.375 10.5C19.8248 10.5 21 11.6752 21 13.125Z" fill="#402A32"/>
<path d="M0.875 17.0625C0.875 15.8544 1.85438 14.875 3.0625 14.875C4.27062 14.875 5.25 15.8544 5.25 17.0625V20.5625C5.25 21.7706 4.27062 22.75 3.0625 22.75C1.85438 22.75 0.875 21.7706 0.875 20.5625V17.0625Z" fill="#3F5FFF"/>
</svg>
