<svg width="16" height="16" viewBox="0 0 16 16" fill="none" xmlns="http://www.w3.org/2000/svg">
<path d="M1.61795 2.94848L3.00417 4.33368C3.13158 4.46099 3.33034 4.46099 3.45775 4.33368L4.33434 3.45775C4.46175 3.33043 4.46175 3.13182 4.33434 3.0045L2.94811 1.61931C2.76974 1.44107 2.85638 1.14061 3.09591 1.07949C3.98268 0.860512 4.96119 1.09477 5.6645 1.77209C6.44642 2.52787 6.68085 3.64228 6.36214 4.61422L11.3606 9.64545C12.3209 9.32031 13.4264 9.5401 14.1935 10.3066C14.8968 11.0094 15.1414 12.0024 14.9223 12.9089C14.8611 13.1432 14.5604 13.2298 14.382 13.0515L12.9958 11.6663C12.8684 11.539 12.6697 11.539 12.5422 11.6663L11.6657 12.5423C11.5383 12.6696 11.5383 12.8682 11.6657 12.9955L13.0519 14.3807C13.2303 14.5589 13.1436 14.8594 12.9041 14.9205C12.0173 15.1395 11.0388 14.9052 10.3355 14.2279C9.56214 13.4804 9.32435 12.3821 9.62759 11.4178L4.60465 6.36605C3.65256 6.67432 2.56436 6.45068 1.80652 5.6934C1.10321 4.99062 0.858586 3.99756 1.07773 3.09108C1.13889 2.85682 1.43958 2.77024 1.61795 2.94848Z" fill="#B4ACBC"/>
</svg>
