<svg width="16" height="16" viewBox="0 0 16 16" fill="none" xmlns="http://www.w3.org/2000/svg">
<path d="M7.675 1.07125C7.835 0.97625 8.03 0.97625 8.185 1.07125L13.645 4.39125C13.775 4.47125 13.855 4.61625 13.855 4.76625L7.93 8.75L2 4.81622V4.76625C2 4.61625 2.08 4.47125 2.21 4.39625L7.675 1.07125Z" fill="#F3C07B"/>
<path d="M7.928 8.12303L13.608 4.67304C13.6329 4.65819 13.6613 4.65021 13.6903 4.64991C13.7193 4.64961 13.7479 4.657 13.7731 4.67133C13.7983 4.68567 13.8193 4.70641 13.8338 4.73148C13.8484 4.75656 13.8561 4.78504 13.856 4.81403V10.984C13.8561 11.1326 13.8179 11.2787 13.7453 11.4083C13.6726 11.5379 13.5678 11.6466 13.441 11.724L8.12103 14.9541C8.10748 14.9615 8.09275 14.9666 8.07751 14.9691C8.06405 14.9731 8.05004 14.9749 8.036 14.9746C7.97924 14.9905 7.91988 14.995 7.86135 14.9879C7.80282 14.9808 7.74628 14.9621 7.695 14.9331H7.69802L6.5 9.49988L7.928 8.12303Z" fill="#FFCE7C"/>
<path d="M7.93 14.8113V8.12634L2.255 4.67634C2.14 4.60634 2 4.68634 2 4.81634V10.9863C2 11.2913 2.16 11.5713 2.415 11.7263L7.7 14.9363C7.8 15.0013 7.93 14.9263 7.93 14.8113Z" fill="#E19747"/>
<path d="M7.25047 13.3913V12.4113C7.25047 12.2963 7.19047 12.1913 7.09547 12.1313L5.69547 11.2863C5.60047 11.2313 5.48047 11.2963 5.48047 11.4063V12.3863C5.48047 12.5013 5.54047 12.6063 5.63547 12.6663L7.03547 13.5113C7.13047 13.5663 7.25047 13.5013 7.25047 13.3913Z" fill="#D3D3D3"/>
<path d="M5.88023 8.27623V6.88123V5.99629L4.24023 5.88623V7.46623C4.24023 7.51623 4.26523 7.56623 4.31023 7.59623L5.65023 8.41123C5.75023 8.46623 5.88023 8.39623 5.88023 8.27623Z" fill="#8C5543"/>
<path d="M10.1702 2.28125L4.24023 5.88625L5.88023 6.88625L11.8102 3.28625L10.1702 2.28125Z" fill="#A56953"/>
</svg>
