<svg width="16" height="16" viewBox="0 0 16 16" fill="none" xmlns="http://www.w3.org/2000/svg">
<path d="M1 3C1 1.89543 1.89543 1 3 1H13C14.1046 1 15 1.89543 15 3V13C15 14.1046 14.1046 15 13 15H3C1.89543 15 1 14.1046 1 13V3Z" fill="#00A6ED"/>
<path d="M3.97286 7.17941C3.97385 7.3709 4.12883 7.52588 4.32032 7.52687L7.38989 7.54269C7.70192 7.5443 7.8593 7.16711 7.63866 6.94647L6.70219 6.01C6.64675 5.95456 6.65539 5.86218 6.72276 5.82208C7.09651 5.59958 7.5332 5.47179 7.99974 5.47179C9.13805 5.47179 10.0987 6.23255 10.4009 7.27337C10.434 7.38756 10.5352 7.47179 10.6541 7.47179H11.6857C11.836 7.47179 11.9529 7.33964 11.9238 7.19214C11.5611 5.35622 9.9421 3.97179 7.99974 3.97179C7.10434 3.97179 6.27765 4.266 5.61107 4.76302C5.56025 4.80091 5.4891 4.79691 5.44428 4.75208L4.55326 3.86107C4.33262 3.64043 3.95543 3.79781 3.95704 4.10983L3.97286 7.17941Z" fill="white"/>
<path d="M11.3458 12.1389L10.4643 11.2574C10.4204 11.2135 10.3511 11.2086 10.3004 11.2444C9.64965 11.7027 8.85612 11.9718 7.99974 11.9718C6.05739 11.9718 4.43839 10.5874 4.07568 8.75143C4.04654 8.60393 4.16346 8.47179 4.3138 8.47179H5.3454C5.4643 8.47179 5.56545 8.55602 5.59861 8.6702C5.90083 9.71102 6.86144 10.4718 7.99974 10.4718C8.42323 10.4718 8.82213 10.3665 9.17168 10.1806C9.24296 10.1427 9.25413 10.0472 9.19705 9.99014L8.26037 9.05346C8.03973 8.83282 8.19711 8.45562 8.50913 8.45723L11.5787 8.47305C11.7702 8.47404 11.9252 8.62903 11.9262 8.82051L11.942 11.8901C11.9436 12.2021 11.5664 12.3595 11.3458 12.1389Z" fill="white"/>
</svg>
