<svg width="16" height="16" viewBox="0 0 16 16" fill="none" xmlns="http://www.w3.org/2000/svg">
<path d="M3.89844 6.37356L6.37331 3.89868L14.6818 12.2072C15.0723 12.5977 15.0723 13.2309 14.6818 13.6214L13.6212 14.6821C13.2306 15.0726 12.5975 15.0726 12.2069 14.6821L3.89844 6.37356Z" fill="#CDC4D6"/>
<path d="M2.63086 4.50514L4.50086 2.64014L6.6451 3.32902L7.11586 5.25514L5.24586 7.12514L3.44242 6.42583L2.63086 4.50514Z" fill="#B4ACBC"/>
<path d="M8.12585 10.0051L9.99585 8.13513L12.3887 8.43743L12.6109 10.7501L10.7409 12.6201L8.6567 12.0636L8.12585 10.0051Z" fill="#B4ACBC"/>
<path d="M2.63625 4.51001L1.16125 5.98501C0.94625 6.20001 0.94625 6.55501 1.16125 6.77001L2.99125 8.60001C3.20625 8.81501 3.56125 8.81501 3.77625 8.60001L5.25125 7.12501L2.63625 4.51001Z" fill="#998EA4"/>
<path d="M8.13125 10.005L6.65624 11.48C6.44124 11.695 6.44124 12.05 6.65624 12.265L8.48624 14.095C8.70124 14.31 9.05624 14.31 9.27124 14.095L10.7462 12.62L8.13125 10.005Z" fill="#998EA4"/>
<path d="M5.95623 8.425L8.02123 5.45C8.09123 5.355 8.07623 5.23 7.99623 5.145C7.89123 5.04 7.71623 5.06 7.63123 5.18L5.56623 8.155C5.49623 8.25 5.51123 8.38 5.59123 8.46C5.69623 8.565 5.87123 8.545 5.95623 8.425Z" fill="#998EA4"/>
<path d="M6.8062 9.27501L8.8712 6.30001C8.9362 6.20501 8.9262 6.07501 8.8462 5.99501C8.7412 5.89001 8.5662 5.91001 8.4812 6.03001L6.4162 9.00501C6.3462 9.10001 6.3612 9.23001 6.4412 9.31001C6.5462 9.41501 6.7212 9.39501 6.8062 9.27501Z" fill="#998EA4"/>
<path d="M9.71624 7.14501L7.65124 10.12C7.56624 10.24 7.39124 10.26 7.28624 10.155C7.20624 10.075 7.19124 9.94501 7.26124 9.85001L9.32623 6.87501C9.41123 6.75501 9.58623 6.73501 9.69123 6.84001C9.77123 6.92001 9.78124 7.05001 9.71624 7.14501Z" fill="#998EA4"/>
<path d="M11.3863 13.855L13.4513 10.88C13.5213 10.785 13.5063 10.655 13.4263 10.575C13.3213 10.47 13.1463 10.49 13.0613 10.61L10.9963 13.585C10.9263 13.68 10.9413 13.81 11.0213 13.89C11.1263 13.995 11.3013 13.975 11.3863 13.855Z" fill="#998EA4"/>
<path d="M14.3013 11.73L12.2363 14.705C12.1513 14.825 11.9763 14.845 11.8713 14.74C11.7913 14.66 11.7763 14.53 11.8463 14.435L13.9113 11.46C13.9963 11.34 14.1713 11.32 14.2763 11.425C14.3563 11.505 14.3663 11.635 14.3013 11.73Z" fill="#998EA4"/>
<path d="M4.50195 2.64L5.97695 1.165C6.19195 0.945 6.54695 0.945 6.76195 1.165L8.59195 2.995C8.80695 3.21 8.80695 3.565 8.59195 3.78L7.11695 5.255L4.50195 2.64Z" fill="#CDC4D6"/>
<path d="M9.99695 8.135L11.4719 6.66C11.6869 6.44 12.0419 6.44 12.2569 6.66L14.0869 8.49C14.3019 8.705 14.3019 9.05999 14.0869 9.27499L12.6119 10.75L9.99695 8.135Z" fill="#CDC4D6"/>
</svg>
