<svg width="20" height="20" viewBox="0 0 20 20" fill="none" xmlns="http://www.w3.org/2000/svg">
<g clip-path="url(#clip0_2232_30926)">
<g clip-path="url(#clip1_2232_30926)">
<path d="M10.0003 1.66699C14.6028 1.66699 18.3337 5.39783 18.3337 10.0003C18.3354 12.1882 17.4766 14.289 15.9427 15.8492C14.4089 17.4094 12.323 18.3037 10.1353 18.3392C7.94774 18.3746 5.83394 17.5483 4.25032 16.0387C2.66671 14.529 1.74032 12.4571 1.67116 10.2703L1.66699 10.0003L1.67033 9.76699C1.79366 5.27283 5.47533 1.66699 10.0003 1.66699ZM10.0003 12.5003C9.79621 12.5004 9.59921 12.5753 9.44668 12.7109C9.29415 12.8466 9.19671 13.0335 9.17283 13.2362L9.16699 13.3337L9.17283 13.4395C9.19692 13.642 9.29446 13.8287 9.44696 13.9641C9.59947 14.0996 9.79636 14.1744 10.0003 14.1744C10.2043 14.1744 10.4012 14.0996 10.5537 13.9641C10.7062 13.8287 10.8037 13.642 10.8278 13.4395L10.8337 13.342L10.8278 13.2362C10.8039 13.0335 10.7065 12.8466 10.554 12.7109C10.4014 12.5753 10.2044 12.5004 10.0003 12.5003ZM11.1403 6.93949C10.6415 6.68446 10.0711 6.60561 9.52173 6.71575C8.97241 6.82589 8.47647 7.11854 8.11449 7.54616C7.97648 7.70783 7.90546 7.91613 7.91597 8.12844C7.92649 8.34074 8.01774 8.54101 8.17105 8.68825C8.32436 8.83549 8.52814 8.91858 8.7407 8.92052C8.95326 8.92245 9.15853 8.84309 9.31449 8.69866L9.45699 8.54866C9.57993 8.43581 9.7345 8.36333 9.89987 8.34098C10.0653 8.31864 10.2335 8.34749 10.382 8.42366C10.5421 8.50467 10.6717 8.63517 10.7517 8.79577C10.8316 8.95637 10.8576 9.13848 10.8258 9.31504C10.794 9.4916 10.706 9.65317 10.575 9.77573C10.444 9.8983 10.2769 9.97531 10.0987 9.99533L9.90532 10.0053C9.69337 10.0286 9.49843 10.1323 9.3606 10.295C9.22278 10.4577 9.15257 10.6671 9.16442 10.88C9.17627 11.0929 9.26928 11.2931 9.42431 11.4395C9.57934 11.5859 9.78459 11.6673 9.99782 11.667C10.56 11.6687 11.1064 11.4808 11.5486 11.1338C11.9909 10.7867 12.3033 10.3007 12.4354 9.75427C12.5674 9.20782 12.5115 8.63279 12.2765 8.12207C12.0415 7.61134 11.6412 7.19472 11.1403 6.93949Z" fill="#696B6F"/>
</g>
</g>
<defs>
<clipPath id="clip0_2232_30926">
<rect width="20" height="20" fill="white"/>
</clipPath>
<clipPath id="clip1_2232_30926">
<rect width="20" height="20" fill="white"/>
</clipPath>
</defs>
</svg>
