<svg width="94" height="20" viewBox="0 0 94 20" fill="none" xmlns="http://www.w3.org/2000/svg">
<g clip-path="url(#clip0_1978_159087)">
<path d="M19.9089 20C19.9089 20 19.9985 17.1655 19.9985 13.5793C19.9985 13.0069 20.033 11.0897 19.7709 8.98621C19.7709 8.97241 19.6882 8.37931 19.6882 8.37931C18.9158 3.62759 14.8334 0 9.9096 0C4.43415 0 0 4.47586 0 10C0 15.5241 4.43415 20 9.9096 20C11.606 20 13.199 19.5724 14.592 18.8138L10.3854 10.4759L19.9089 20Z" fill="#1E1E1F"/>
<path d="M41.4272 0.344727C37.1169 0.344727 33.1032 1.57921 29.7033 3.71714V0.344727H22.1172V19.6551H29.7033V16.2827C33.1032 18.4206 37.1169 19.6551 41.4272 19.6551V10.4896H31.7722L41.4272 7.73093V0.344727Z" fill="#1E1E1F"/>
<path d="M51.1479 0.344727H43.5449V19.6551H51.1479V0.344727Z" fill="#1E1E1F"/>
<path d="M72.5736 0.344727C68.2538 0.344727 64.2311 1.593 60.8236 3.73093V0.344727H53.2207V19.6551H62.8972V16.2827H72.5736V10.4896H62.8972L72.5736 7.73093V0.344727Z" fill="#1E1E1F"/>
<path d="M86.8112 0.344727L83.065 8.0068L84.0465 0.344727H74.6465C74.6465 4.06886 75.7109 7.53783 77.5425 10.4827H74.6465V19.6551C78.1715 19.6551 81.4753 18.7102 84.323 17.062C90.2325 13.7102 94.0478 7.12404 93.9994 0.344727H86.8112Z" fill="#1E1E1F"/>
</g>
<defs>
<clipPath id="clip0_1978_159087">
<rect width="94" height="20" fill="white"/>
</clipPath>
</defs>
</svg>
