<svg width="28" height="28" viewBox="0 0 28 28" fill="none" xmlns="http://www.w3.org/2000/svg">
    <path
        d="M14.0007 2.33398C15.1544 2.33398 16.2822 2.6761 17.2415 3.31708C18.2008 3.95805 18.9484 4.8691 19.39 5.935C19.8315 7.0009 19.947 8.17379 19.7219 9.30535C19.4968 10.4369 18.9412 11.4763 18.1254 12.2921C17.3096 13.1079 16.2702 13.6635 15.1387 13.8886C14.0071 14.1136 12.8342 13.9981 11.7683 13.5566C10.7024 13.1151 9.79139 12.3674 9.15041 11.4081C8.50944 10.4489 8.16732 9.32104 8.16732 8.16732L8.17315 7.91415C8.23839 6.41236 8.88086 4.99373 9.96658 3.95409C11.0523 2.91445 12.4974 2.33407 14.0007 2.33398Z" />
    <path
        d="M16.334 16.334C17.8811 16.334 19.3648 16.9486 20.4588 18.0425C21.5527 19.1365 22.1673 20.6202 22.1673 22.1673V23.334C22.1673 23.9528 21.9215 24.5463 21.4839 24.9839C21.0463 25.4215 20.4528 25.6673 19.834 25.6673H8.16732C7.54848 25.6673 6.95499 25.4215 6.5174 24.9839C6.07982 24.5463 5.83398 23.9528 5.83398 23.334V22.1673C5.83398 20.6202 6.44857 19.1365 7.54253 18.0425C8.63649 16.9486 10.1202 16.334 11.6673 16.334H16.334Z" />
</svg>