<svg width="28" height="28" viewBox="0 0 28 28" fill="none" xmlns="http://www.w3.org/2000/svg">
    <path fill-rule="evenodd" clip-rule="evenodd"
        d="M14 25C7.92487 25 3 20.0751 3 14C3 7.92487 7.92487 3 14 3C20.0751 3 25 7.92487 25 14C25 20.0751 20.0751 25 14 25ZM12.1046 12.3032C12.1446 12.2152 12.2152 12.1446 12.3032 12.1046L17.9178 9.5525C18.2543 9.39956 18.6004 9.7457 18.4475 10.0822L15.8954 15.6968C15.8554 15.7848 15.7848 15.8554 15.6968 15.8954L10.0822 18.4475C9.7457 18.6004 9.39956 18.2543 9.5525 17.9178L12.1046 12.3032Z"
        fill="currentColor" />
</svg>