<svg width="16" height="16" viewBox="0 0 16 16" fill="none" xmlns="http://www.w3.org/2000/svg">
<path d="M10.2969 3.62589C10.9049 4.96665 11.6511 6.612 12.2112 7.26556C12.3206 7.01166 12.3089 6.58588 12.4339 5.54681C12.5468 4.60852 13.3206 4.51947 13.6526 4.58588C14.387 4.739 14.6107 5.48336 14.5862 5.75775C14.5472 6.19525 14.5453 6.18037 14.4651 7.23822C14.348 8.7851 14.9456 9.95306 15.0003 11.2773C15.0003 13.7734 12.8128 14.9999 11.2816 14.9999C10.0566 14.9999 8.83103 14.2161 8.3714 13.8242L6.07452 11.7265C5.79327 11.5078 5.09814 10.786 4.79323 10.371C3.96198 9.23978 5.16437 8.46088 5.8401 8.65619C5.78698 8.61556 5.46643 8.09499 5.3128 7.83978C4.9003 7.01166 5.3128 6.46002 5.61749 6.30853C6.3089 5.96478 6.81671 6.3515 6.97686 6.56244C6.91567 6.45827 6.72375 6.03744 6.41437 5.26556C6.105 4.49369 6.60317 4.01687 6.89093 3.87494C7.51593 3.58588 8.10968 3.95306 8.25812 4.28119C8.33081 4.44187 8.72289 5.30061 8.89361 5.67933C8.76496 5.36531 8.53192 4.74141 8.44953 4.45306C8.28546 3.77338 8.67997 3.30724 8.92997 3.18745C9.27759 3.02089 10.0027 2.97726 10.2893 3.60932L10.2969 3.62589Z" fill="#FFC83D"/>
<path d="M8.89109 3.45764C8.94373 3.28728 9.01655 3.18465 9.07138 3.1333C9.01951 3.14891 8.97174 3.16732 8.92953 3.18754C8.67953 3.30733 8.28503 3.77347 8.44909 4.45316C8.53149 4.7415 8.76452 5.3654 8.89318 5.67943L8.8314 5.54273C9.11359 6.19006 9.46491 6.88737 9.72971 7.33769C9.7997 7.45671 9.95292 7.49646 10.0719 7.42647C10.191 7.35649 10.2307 7.20327 10.1607 7.08425C9.73096 6.35341 9.07661 4.96667 8.88956 4.27823C8.80447 3.96506 8.82356 3.67615 8.89109 3.45764Z" fill="#D67D00"/>
<path d="M5.31236 7.83987C5.42852 8.03283 5.64008 8.37747 5.75935 8.55169C5.91737 8.7418 6.09046 8.92394 6.26552 9.09723C6.46519 9.29489 6.67269 9.48599 6.86921 9.66698L6.88585 9.6823C7.08884 9.86926 7.27851 10.0444 7.44312 10.2109C7.54018 10.3091 7.69847 10.31 7.79666 10.213C7.89486 10.1159 7.89578 9.95764 7.79872 9.85944C7.62441 9.68309 7.42585 9.49991 7.22458 9.31453L7.21047 9.30153C7.01215 9.11888 6.81044 8.9331 6.61727 8.74188C6.21826 8.34691 5.87758 7.94931 5.69634 7.54922C5.56806 7.26601 5.53657 6.93463 5.57157 6.66062C5.58901 6.52415 5.62171 6.41198 5.65941 6.33338C5.67206 6.30702 5.68374 6.28748 5.69364 6.27316C5.66837 6.284 5.64284 6.2958 5.61705 6.30862C5.31236 6.46011 4.89986 7.01175 5.31236 7.83987Z" fill="#D67D00"/>
<path d="M6.94116 3.853C6.88806 3.88903 6.81469 3.9761 6.76833 4.14522C6.71611 4.33574 6.70802 4.60361 6.7958 4.92667C6.92296 5.39466 7.24166 6.02236 7.60643 6.63734C7.96792 7.24678 8.36182 7.82263 8.62356 8.1806C8.70506 8.29205 8.68077 8.44847 8.56931 8.52996C8.45786 8.61146 8.30144 8.58717 8.21995 8.47572C7.95044 8.10712 7.54737 7.51787 7.17639 6.89242C7.07683 6.72458 6.97863 6.55255 6.88544 6.38024C6.78844 6.17178 6.62978 5.80414 6.41395 5.26566C6.10457 4.49378 6.60275 4.01696 6.89051 3.87503C6.90742 3.86721 6.92431 3.85987 6.94116 3.853Z" fill="#D67D00"/>
<path d="M12.3377 6.4719C12.3014 6.86912 12.2806 7.09585 12.2153 7.25514C12.2114 7.30496 12.2078 7.35047 12.204 7.39147C12.1915 7.52897 12.2929 7.65057 12.4304 7.66307C12.5679 7.67557 12.6895 7.57424 12.702 7.43674C12.7094 7.35479 12.7165 7.25998 12.7244 7.15277C12.7537 6.75647 12.7956 6.1908 12.9181 5.48004C12.9691 5.18461 13.1013 4.92881 13.2531 4.76211C13.3701 4.63359 13.4714 4.58382 13.5409 4.57144C13.1726 4.54575 12.5351 4.70211 12.4335 5.54691C12.3872 5.93198 12.3596 6.23282 12.3377 6.4719Z" fill="#D67D00"/>
<path d="M12.019 3.77836C12.02 3.91643 12.1326 4.02763 12.2707 4.02672C12.4087 4.02582 12.5199 3.91316 12.519 3.77509C12.5115 2.62774 11.6393 1.03079 9.76455 1.04304C9.62648 1.04394 9.51529 1.1566 9.51619 1.29467C9.51709 1.43274 9.62975 1.54393 9.76782 1.54303C11.2836 1.53312 12.0128 2.81639 12.019 3.77836Z" fill="#5092FF"/>
<path d="M11.4388 4.99312C11.3008 4.99403 11.1881 4.88283 11.1872 4.74476C11.1842 4.29021 10.9967 3.68467 10.5987 3.19748C10.2069 2.71796 9.61502 2.35655 8.78876 2.36195C8.65069 2.36285 8.53804 2.25166 8.53713 2.11359C8.53623 1.97552 8.64743 1.86286 8.78549 1.86196C9.77951 1.85546 10.5094 2.29793 10.9859 2.88112C11.4561 3.45663 11.6835 4.17263 11.6872 4.74149C11.6881 4.87956 11.5769 4.99222 11.4388 4.99312Z" fill="#5092FF"/>
<path d="M2.43774 8.80465C2.43774 8.66658 2.32582 8.55465 2.18774 8.55465C2.04967 8.55465 1.93774 8.66658 1.93774 8.80465C1.93774 9.37353 2.16045 10.091 2.62691 10.6696C3.09958 11.2559 3.82652 11.7031 4.82056 11.7031C4.95863 11.7031 5.07056 11.5912 5.07056 11.4531C5.07056 11.315 4.95863 11.2031 4.82056 11.2031C3.99429 11.2031 3.40481 10.8378 3.01616 10.3558C2.62129 9.86597 2.43774 9.25921 2.43774 8.80465Z" fill="#5092FF"/>
<path d="M1.59961 9.76559C1.59961 9.62752 1.48768 9.51559 1.34961 9.51559C1.21154 9.51559 1.09961 9.62752 1.09961 9.76559C1.09961 10.913 1.96142 12.5156 3.83618 12.5156C3.97425 12.5156 4.08618 12.4037 4.08618 12.2656C4.08618 12.1275 3.97425 12.0156 3.83618 12.0156C2.32032 12.0156 1.59961 10.7276 1.59961 9.76559Z" fill="#5092FF"/>
</svg>
